<?xml version="1.0" standalone="no"?>
<!DOCTYPE svg PUBLIC "-//W3C//DTD SVG 20010904//EN"
 "http://www.w3.org/TR/2001/REC-SVG-20010904/DTD/svg10.dtd">
<svg version="1.0" xmlns="http://www.w3.org/2000/svg"
 width="32.000000pt" height="32.000000pt" viewBox="0 0 32.000000 32.000000"
 preserveAspectRatio="xMidYMid meet">

<g transform="translate(0.000000,32.000000) scale(0.100000,-0.100000)"
fill="currentColor" stroke="none">
<path d="M38 274 c-35 -22 -38 -28 -38 -69 0 -42 2 -46 45 -70 l44 -26 70 41
c68 41 70 41 100 25 42 -21 44 -74 5 -100 -25 -16 -29 -16 -60 -1 -19 8 -34
23 -34 31 0 9 -4 13 -10 10 -25 -15 -9 -46 34 -67 l45 -21 40 26 c38 25 41 31
41 72 0 42 -2 46 -45 70 l-44 26 -70 -41 c-69 -40 -71 -40 -101 -25 -27 14
-31 21 -28 53 2 27 10 40 30 51 23 13 30 13 54 1 15 -8 29 -23 32 -32 5 -22
22 -13 22 12 0 18 -59 61 -83 59 -7 0 -29 -11 -49 -25z"/>
</g>
</svg>
