<svg width="30" height="30" viewBox="0 0 30 30" fill="none" xmlns="http://www.w3.org/2000/svg">
<path d="M15 30C23.2843 30 30 23.2843 30 15C30 6.71573 23.2843 0 15 0C6.71573 0 0 6.71573 0 15C0 23.2843 6.71573 30 15 30Z" fill="url(#paint0_linear_26_3504)"/>
<path d="M9.41303 14.7666C9.64369 14.8259 9.86169 14.8962 10.085 14.9372C11.0477 15.1136 11.9294 14.9092 12.727 14.3446C12.8107 14.2856 12.8644 14.2796 12.953 14.3409C14.224 15.2232 15.782 15.2216 17.0674 14.3409C17.137 14.2929 17.183 14.2722 17.2654 14.3299C18.2654 15.0299 19.3464 15.1879 20.503 14.7816C20.5185 14.7761 20.5343 14.7718 20.5504 14.7686C20.5671 14.7674 20.5839 14.7674 20.6007 14.7686C20.604 14.8186 20.6104 14.8686 20.6104 14.9209C20.6104 17.0214 20.6104 19.1214 20.6104 21.2209C20.6104 21.7209 20.329 22.0009 19.8264 22.0012C16.611 22.0012 13.3956 22.0012 10.18 22.0012C9.69336 22.0012 9.40436 21.7229 9.40403 21.2469C9.40203 19.1302 9.40203 17.0136 9.40403 14.8969C9.40369 14.8532 9.40969 14.8112 9.41303 14.7666ZM16.391 20.5969C16.391 19.8236 16.4244 19.0682 16.3814 18.3169C16.3417 17.6276 15.7147 17.1062 15.02 17.1012C14.2364 17.0956 13.62 17.7076 13.6064 18.5189C13.5964 19.1696 13.6037 19.8209 13.6047 20.4716C13.6073 20.5136 13.6124 20.5555 13.62 20.5969H16.391Z" fill="white"/>
<path d="M17.157 11.572C17.022 12.8053 16.1403 13.6083 14.981 13.5963C13.8497 13.585 12.9683 12.7673 12.8477 11.6266C12.8343 11.6933 12.8203 11.7616 12.808 11.8296C12.6287 12.807 11.7517 13.5703 10.7783 13.5963C9.76668 13.622 8.89634 12.9513 8.65801 11.9596C8.5782 11.6115 8.58518 11.2491 8.67834 10.9043C8.87468 10.126 9.06834 9.34698 9.26468 8.56864C9.35668 8.20398 9.60934 8.00198 9.98634 8.00198C13.3335 8.00064 16.6806 8.00064 20.0277 8.00198C20.405 8.00198 20.6583 8.20198 20.7503 8.56864C20.9453 9.34198 21.1407 10.115 21.3313 10.889C21.6343 12.1166 20.8857 13.3223 19.6723 13.5656C18.547 13.7916 17.396 12.999 17.2057 11.8656C17.192 11.782 17.1787 11.7 17.157 11.572Z" fill="white"/>
<defs>
<linearGradient id="paint0_linear_26_3504" x1="15" y1="0" x2="15" y2="30" gradientUnits="userSpaceOnUse">
<stop stopColor="#F27252"/>
<stop offset="1" stopColor="#E85443"/>
</linearGradient>
</defs>
</svg>
